<?xml version="1.0" standalone="no"?>
<!DOCTYPE svg PUBLIC "-//W3C//DTD SVG 20010904//EN"
 "http://www.w3.org/TR/2001/REC-SVG-20010904/DTD/svg10.dtd">
<svg version="1.0" xmlns="http://www.w3.org/2000/svg"
 width="512.000000pt" height="512.000000pt" viewBox="0 0 512.000000 512.000000"
 preserveAspectRatio="xMidYMid meet">
<metadata>
Created by potrace 1.14, written by Peter Selinger 2001-2017
</metadata>
<g transform="translate(0.000000,512.000000) scale(0.100000,-0.100000)"
fill="#000000" stroke="none">
<path d="M91 3468 c-43 -22 -44 -24 -48 -78 l-3 -55 42 -19 c33 -15 72 -21
163 -24 66 -2 123 -7 127 -10 4 -4 -11 -84 -32 -178 -128 -572 -154 -1008 -79
-1304 25 -97 87 -231 98 -210 13 25 32 210 30 290 -2 49 5 107 20 170 12 52
29 132 38 177 10 55 21 84 32 89 38 16 238 16 351 0 182 -27 380 -85 410 -121
17 -21 -153 -173 -430 -385 -237 -181 -450 -371 -450 -401 0 -9 18 -10 68 -6
37 4 79 7 94 7 33 0 144 74 323 215 169 134 241 200 337 310 103 118 138 187
138 272 0 77 -12 102 -82 170 -67 65 -116 87 -261 115 l-114 22 64 83 c66 88
119 184 147 269 9 28 23 60 31 70 20 26 18 75 -5 168 -31 123 -111 212 -255
284 -145 73 -243 92 -500 98 -206 5 -211 5 -254 -18z m590 -222 c117 -36 243
-123 269 -186 11 -26 9 -37 -18 -94 -92 -196 -244 -330 -441 -391 -24 -7 -24
-7 -17 46 10 79 54 309 82 429 37 158 53 210 67 210 7 0 33 -6 58 -14z"/>
<path d="M4374 2985 c-23 -35 -14 -101 20 -151 40 -60 33 -155 -21 -277 -24
-52 -25 -60 -11 -74 79 -78 212 322 154 461 -28 67 -110 90 -142 41z"/>
<path d="M3075 2994 c-71 -8 -208 -35 -287 -56 -69 -19 -78 -24 -78 -45 0 -21
22 -180 35 -258 5 -30 5 -29 -15 7 -38 69 -113 102 -218 96 -85 -5 -147 -35
-213 -105 -87 -92 -125 -204 -117 -348 5 -94 27 -144 87 -198 99 -90 272 -89
466 3 44 21 82 37 84 34 2 -2 20 -114 40 -250 l36 -247 101 7 c213 14 404 61
524 129 85 48 174 142 215 228 19 40 38 88 41 106 8 40 24 44 24 6 0 -67 79
-178 143 -202 52 -20 153 -13 205 13 105 53 204 201 204 305 1 104 -31 175
-105 235 -29 23 -49 31 -85 32 -26 1 -60 7 -75 13 -16 6 -51 11 -78 11 -85 0
-130 -35 -177 -139 l-29 -64 -6 79 c-24 308 -181 525 -423 589 -61 16 -228 26
-299 19z m207 -125 c231 -49 368 -262 368 -573 0 -176 -37 -282 -132 -377 -58
-58 -168 -114 -263 -134 -70 -15 -235 -32 -235 -24 0 2 -20 138 -45 301 l-44
297 68 66 c38 37 84 77 102 91 41 30 130 64 169 64 61 0 170 -125 170 -195 0
-14 -1 -25 -2 -25 -2 0 -30 14 -62 30 -32 17 -67 30 -78 30 -31 0 -91 -36
-136 -80 -62 -62 -86 -133 -87 -254 l0 -98 35 -29 c58 -49 102 -38 207 49 103
85 103 86 151 60 38 -22 41 -22 60 -5 45 41 54 156 23 279 -27 105 -88 241
-130 290 -35 41 -118 88 -157 88 -44 0 -168 -73 -229 -134 -54 -55 -69 -80
-102 -165 -7 -19 -15 20 -37 170 -15 107 -30 204 -32 215 -5 18 1 24 29 33
113 38 289 51 389 30z m-684 -273 c15 -8 37 -26 49 -40 28 -32 66 -34 87 -4 9
12 17 20 20 17 6 -7 44 -284 39 -292 -8 -14 -118 -65 -187 -86 -134 -41 -223
-22 -264 59 -28 53 -25 103 9 194 45 122 164 195 247 152z m1493 -215 c22 -17
47 -27 55 -24 24 9 62 -17 79 -52 54 -114 -50 -280 -184 -293 -48 -4 -53 -3
-85 31 -49 53 -60 140 -29 236 19 59 76 131 104 131 10 0 37 -13 60 -29z
m-728 -88 c30 -15 67 -67 67 -95 0 -26 -252 -180 -268 -164 -15 16 -14 145 2
193 28 84 110 112 199 66z"/>
<path d="M4036 2303 c-11 -11 -6 -23 9 -23 8 0 15 4 15 9 0 13 -16 22 -24 14z"/>
<path d="M4085 2301 c-7 -12 12 -24 25 -16 11 7 4 25 -10 25 -5 0 -11 -4 -15
-9z"/>
<path d="M3980 2275 c0 -9 5 -15 11 -13 6 2 11 8 11 13 0 5 -5 11 -11 13 -6 2
-11 -4 -11 -13z"/>
<path d="M4140 2275 c0 -9 5 -15 11 -13 6 2 11 8 11 13 0 5 -5 11 -11 13 -6 2
-11 -4 -11 -13z"/>
<path d="M3947 2243 c-12 -11 -8 -23 8 -23 8 0 15 7 15 15 0 16 -12 20 -23 8z"/>
<path d="M4176 2243 c-11 -11 -6 -23 9 -23 8 0 15 4 15 9 0 13 -16 22 -24 14z"/>
<path d="M3927 2194 c-8 -8 1 -24 14 -24 5 0 9 7 9 15 0 15 -12 20 -23 9z"/>
<path d="M4196 2193 c-11 -11 -6 -23 9 -23 8 0 15 4 15 9 0 13 -16 22 -24 14z"/>
<path d="M1591 2779 c-18 -6 -54 -31 -80 -57 -91 -91 -136 -234 -128 -407 5
-121 30 -193 89 -259 65 -75 105 -91 223 -91 91 0 105 3 155 29 79 42 167 136
220 236 44 83 45 87 45 180 0 82 -4 103 -27 152 -15 32 -39 73 -53 92 -48 63
-159 119 -193 98 -7 -5 -40 1 -80 15 -71 24 -116 27 -171 12z m176 -165 c41
-28 60 -35 84 -32 61 9 119 -77 119 -177 0 -91 -94 -221 -193 -266 -155 -70
-271 63 -238 272 19 118 97 239 154 239 12 0 45 -16 74 -36z"/>
<path d="M4747 2566 c-87 -32 -157 -113 -165 -195 -8 -83 37 -138 187 -227 97
-57 181 -128 181 -153 0 -47 -108 -87 -258 -97 -140 -9 -178 -42 -111 -98 26
-22 40 -26 95 -26 145 0 320 58 364 120 33 47 38 116 11 169 -24 46 -82 92
-235 184 -146 88 -161 131 -63 187 40 24 62 30 97 28 43 -3 45 -4 58 -45 13
-39 17 -43 48 -43 28 0 35 4 40 25 17 69 -35 150 -113 173 -51 15 -88 15 -136
-2z"/>
</g>
</svg>
